# xmcd
#
# Track frame offsets:
#	150
#	17010
#	33275
#	50397
#	72800
#	90117
#	105720
#	124775
#	138630
#	157997
#	180592
#
# Disc length: 2628 seconds
#
# Revision: 0
# Processed by: cddbd v1.4PL0 Copyright (c) Steve Scherf et al.
# Submitted via: audiograbber 1.81.02
#
DISCID=820a420b
DTITLE=Lonnie Shields - Midnight Delight
DYEAR=2000
DGENRE=Blues
TTITLE0=Midnight Delight
TTITLE1=Love Games
TTITLE2=I'm Bad
TTITLE3=Arkansas Is My Home [No. 2]
TTITLE4=Woman, I Want To Talk To You
TTITLE5=Same Kind of Lovin' (Love Me All Over)
TTITLE6=What Am I Gonna Do With All These Women?
TTITLE7=DeSoto Bridge [Instrumental]
TTITLE8=Flowers In The Rain
TTITLE9=Long Lonesome Road
TTITLE10=Lookin' Up At The Blues
EXTD=
EXTT0=
EXTT1=
EXTT2=
EXTT3=
EXTT4=
EXTT5=
EXTT6=
EXTT7=
EXTT8=
EXTT9=
EXTT10=
PLAYORDER=
